<svg width="1440" height="1017" viewBox="0 0 1440 1017" fill="none" xmlns="http://www.w3.org/2000/svg">
<rect width="1440" height="1017" fill="white"/>
<rect x="400" y="203" width="640" height="640" fill="#C4C4C4"/>
<path d="M893.736 892.5L893.041 888.172L890.384 892.5H893.736ZM892.541 897L892.658 896.484C892.819 896.469 893.007 896.448 893.22 896.422C893.439 896.391 893.608 896.357 893.728 896.32C893.89 896.268 894.009 896.214 894.087 896.156C894.171 896.099 894.212 896.01 894.212 895.891C894.212 895.849 894.181 895.594 894.119 895.125C894.056 894.656 893.968 893.997 893.853 893.148H889.962C889.791 893.419 889.608 893.734 889.416 894.094C889.223 894.448 889.074 894.719 888.97 894.906C888.877 895.073 888.785 895.26 888.697 895.469C888.614 895.672 888.572 895.807 888.572 895.875C888.572 896.047 888.71 896.185 888.986 896.289C889.262 896.393 889.608 896.458 890.025 896.484L889.908 897H885.65L885.767 896.484C885.903 896.474 886.08 896.445 886.298 896.398C886.512 896.346 886.692 896.279 886.837 896.195C887.02 896.091 887.194 895.964 887.361 895.812C887.533 895.656 887.715 895.424 887.908 895.117C888.809 893.69 889.796 892.102 890.869 890.352C891.947 888.602 892.895 887.07 893.712 885.758H894.337L895.814 895.359C895.845 895.552 895.897 895.716 895.97 895.852C896.043 895.982 896.153 896.104 896.298 896.219C896.403 896.292 896.543 896.354 896.72 896.406C896.897 896.453 897.054 896.479 897.189 896.484L897.072 897H892.541ZM903.122 885.023L900.942 894.43C900.895 894.628 900.851 894.826 900.809 895.023C900.768 895.221 900.747 895.383 900.747 895.508C900.747 895.805 900.812 896.008 900.942 896.117C901.078 896.227 901.294 896.281 901.591 896.281C901.695 896.281 901.848 896.268 902.052 896.242C902.26 896.216 902.416 896.185 902.52 896.148L902.403 896.648C901.934 896.836 901.572 896.969 901.317 897.047C901.067 897.125 900.783 897.164 900.466 897.164C900.049 897.164 899.731 897.057 899.512 896.844C899.299 896.625 899.192 896.357 899.192 896.039C899.192 895.919 899.203 895.794 899.223 895.664C899.249 895.534 899.283 895.37 899.325 895.172L901.223 886.945C901.26 886.784 901.283 886.672 901.294 886.609C901.309 886.547 901.317 886.469 901.317 886.375C901.317 886.188 901.286 886.044 901.223 885.945C901.161 885.841 901.072 885.763 900.958 885.711C900.848 885.664 900.71 885.633 900.544 885.617C900.377 885.602 900.208 885.583 900.036 885.562L900.145 885.086L903.044 884.906L903.122 885.023ZM912.109 892.102C912.109 892.794 911.984 893.458 911.734 894.094C911.484 894.724 911.154 895.268 910.742 895.727C910.32 896.195 909.844 896.565 909.312 896.836C908.781 897.102 908.219 897.234 907.625 897.234C907.177 897.234 906.781 897.195 906.437 897.117C906.099 897.044 905.81 896.943 905.57 896.812C905.326 896.677 905.122 896.526 904.961 896.359C904.799 896.188 904.654 895.997 904.523 895.789L906.539 886.945C906.565 886.826 906.586 886.724 906.602 886.641C906.622 886.552 906.633 886.464 906.633 886.375C906.633 886.188 906.602 886.044 906.539 885.945C906.477 885.841 906.388 885.763 906.273 885.711C906.164 885.664 906.026 885.633 905.859 885.617C905.693 885.602 905.523 885.583 905.352 885.562L905.461 885.086L908.359 884.906L908.437 885.023L907.25 890.219H907.281C907.75 889.802 908.161 889.516 908.516 889.359C908.875 889.198 909.224 889.117 909.562 889.117C910.354 889.117 910.977 889.388 911.43 889.93C911.883 890.466 912.109 891.19 912.109 892.102ZM910.5 892.141C910.5 891.865 910.474 891.589 910.422 891.312C910.375 891.031 910.294 890.797 910.18 890.609C910.06 890.411 909.896 890.255 909.687 890.141C909.479 890.026 909.221 889.969 908.914 889.969C908.732 889.969 908.56 890 908.398 890.062C908.237 890.125 908.07 890.208 907.898 890.312C907.747 890.406 907.599 890.521 907.453 890.656C907.312 890.786 907.182 890.904 907.062 891.008L906.023 895.641C906.039 895.745 906.086 895.859 906.164 895.984C906.242 896.109 906.341 896.219 906.461 896.312C906.607 896.432 906.771 896.523 906.953 896.586C907.135 896.648 907.336 896.68 907.555 896.68C907.966 896.68 908.352 896.56 908.711 896.32C909.076 896.076 909.388 895.747 909.648 895.336C909.935 894.888 910.148 894.388 910.289 893.836C910.43 893.284 910.5 892.719 910.5 892.141ZM918.98 895.906H918.933C918.693 896.099 918.464 896.276 918.245 896.438C918.027 896.599 917.81 896.734 917.597 896.844C917.347 896.969 917.12 897.057 916.917 897.109C916.714 897.167 916.448 897.195 916.12 897.195C915.62 897.195 915.232 897.052 914.956 896.766C914.68 896.474 914.542 896.094 914.542 895.625C914.542 895.5 914.553 895.352 914.573 895.18C914.594 895.008 914.644 894.753 914.722 894.414L915.331 891.938C915.383 891.708 915.425 891.505 915.456 891.328C915.493 891.151 915.511 890.982 915.511 890.82C915.511 890.529 915.461 890.336 915.362 890.242C915.269 890.143 915.073 890.094 914.777 890.094C914.662 890.094 914.516 890.115 914.339 890.156C914.162 890.198 914.024 890.232 913.925 890.258L914.042 889.758C914.448 889.576 914.805 889.438 915.112 889.344C915.425 889.25 915.675 889.203 915.862 889.203C916.279 889.203 916.584 889.302 916.777 889.5C916.974 889.693 917.073 889.969 917.073 890.328C917.073 890.422 917.063 890.549 917.042 890.711C917.021 890.872 916.99 891.034 916.948 891.195L916.253 894.086C916.201 894.305 916.157 894.51 916.12 894.703C916.089 894.891 916.073 895.034 916.073 895.133C916.073 895.482 916.149 895.758 916.3 895.961C916.451 896.164 916.691 896.266 917.019 896.266C917.352 896.266 917.693 896.18 918.042 896.008C918.396 895.831 918.751 895.565 919.105 895.211L920.472 889.328L921.831 889.234L921.925 889.352L920.761 894.383C920.709 894.596 920.662 894.812 920.62 895.031C920.579 895.245 920.558 895.396 920.558 895.484C920.558 895.781 920.62 895.984 920.745 896.094C920.876 896.198 921.089 896.25 921.386 896.25C921.485 896.25 921.626 896.234 921.808 896.203C921.99 896.172 922.131 896.138 922.23 896.102L922.112 896.602C921.68 896.779 921.318 896.911 921.027 897C920.74 897.089 920.474 897.133 920.23 897.133C919.808 897.133 919.493 897.01 919.284 896.766C919.081 896.521 918.98 896.234 918.98 895.906ZM937.077 896.117L936.959 896.617C936.48 896.81 936.097 896.943 935.811 897.016C935.524 897.094 935.28 897.133 935.077 897.133C934.66 897.133 934.347 897.026 934.139 896.812C933.931 896.594 933.827 896.326 933.827 896.008C933.827 895.893 933.837 895.768 933.858 895.633C933.879 895.492 933.912 895.328 933.959 895.141L934.725 892.227C934.782 892.003 934.827 891.799 934.858 891.617C934.894 891.435 934.912 891.289 934.912 891.18C934.912 890.831 934.837 890.555 934.686 890.352C934.535 890.148 934.295 890.047 933.967 890.047C933.618 890.047 933.274 890.13 932.936 890.297C932.603 890.458 932.225 890.763 931.803 891.211L930.444 897H928.991L930.217 891.781C930.243 891.667 930.267 891.547 930.287 891.422C930.314 891.292 930.327 891.195 930.327 891.133C930.327 890.794 930.241 890.529 930.069 890.336C929.902 890.143 929.655 890.047 929.327 890.047C929.03 890.047 928.702 890.122 928.342 890.273C927.983 890.419 927.566 890.75 927.092 891.266L925.772 897H924.319L925.483 891.938C925.524 891.755 925.564 891.56 925.6 891.352C925.642 891.143 925.662 890.966 925.662 890.82C925.662 890.518 925.613 890.32 925.514 890.227C925.415 890.128 925.222 890.078 924.936 890.078C924.821 890.078 924.673 890.099 924.491 890.141C924.314 890.182 924.176 890.216 924.077 890.242L924.194 889.742C924.6 889.56 924.959 889.424 925.272 889.336C925.584 889.247 925.853 889.203 926.077 889.203C926.493 889.203 926.787 889.318 926.959 889.547C927.136 889.771 927.23 890.078 927.241 890.469H927.287C927.902 889.984 928.407 889.638 928.803 889.43C929.199 889.221 929.67 889.117 930.217 889.117C930.681 889.117 931.056 889.253 931.342 889.523C931.634 889.789 931.798 890.125 931.834 890.531H931.866C932.423 890.068 932.918 889.716 933.35 889.477C933.787 889.237 934.295 889.117 934.873 889.117C935.373 889.117 935.756 889.263 936.022 889.555C936.293 889.841 936.428 890.219 936.428 890.688C936.428 890.781 936.412 890.948 936.381 891.188C936.355 891.427 936.311 891.664 936.248 891.898L935.592 894.406C935.545 894.573 935.501 894.766 935.459 894.984C935.418 895.198 935.397 895.365 935.397 895.484C935.397 895.781 935.459 895.984 935.584 896.094C935.709 896.198 935.92 896.25 936.217 896.25C936.316 896.25 936.459 896.237 936.647 896.211C936.834 896.185 936.978 896.154 937.077 896.117ZM946.473 897.219C945.562 897.219 944.841 896.953 944.309 896.422C943.783 895.891 943.52 895.135 943.52 894.156C943.52 893.505 943.619 892.883 943.817 892.289C944.02 891.69 944.302 891.159 944.661 890.695C945.02 890.232 945.473 889.854 946.02 889.562C946.572 889.266 947.184 889.117 947.856 889.117C948.601 889.117 949.166 889.276 949.552 889.594C949.942 889.906 950.137 890.302 950.137 890.781C950.137 891.141 950.052 891.456 949.88 891.727C949.713 891.997 949.46 892.133 949.122 892.133C948.841 892.133 948.63 892.062 948.489 891.922C948.348 891.781 948.278 891.625 948.278 891.453C948.278 891.286 948.335 891.06 948.45 890.773C948.565 890.482 948.656 890.247 948.723 890.07C948.666 889.93 948.539 889.828 948.341 889.766C948.143 889.698 947.937 889.664 947.723 889.664C947.015 889.664 946.403 890.078 945.887 890.906C945.377 891.729 945.122 892.74 945.122 893.938C945.122 894.677 945.286 895.266 945.614 895.703C945.947 896.135 946.395 896.352 946.958 896.352C947.463 896.352 947.911 896.216 948.302 895.945C948.697 895.674 949.075 895.292 949.434 894.797L949.88 895.125C949.52 895.693 949.031 896.185 948.411 896.602C947.796 897.013 947.151 897.219 946.473 897.219ZM959.133 892.188C959.133 892.802 959.029 893.417 958.82 894.031C958.612 894.646 958.31 895.185 957.914 895.648C957.513 896.128 957.029 896.513 956.461 896.805C955.898 897.091 955.245 897.234 954.5 897.234C953.635 897.234 952.932 896.956 952.391 896.398C951.854 895.841 951.586 895.091 951.586 894.148C951.586 893.456 951.701 892.81 951.93 892.211C952.159 891.612 952.466 891.086 952.852 890.633C953.242 890.18 953.724 889.815 954.297 889.539C954.875 889.258 955.5 889.117 956.172 889.117C957.099 889.117 957.823 889.401 958.344 889.969C958.87 890.531 959.133 891.271 959.133 892.188ZM957.539 891.891C957.539 891.151 957.406 890.596 957.141 890.227C956.88 889.857 956.503 889.672 956.008 889.672C955.576 889.672 955.167 889.805 954.781 890.07C954.401 890.336 954.073 890.768 953.797 891.367C953.583 891.82 953.427 892.326 953.328 892.883C953.229 893.435 953.18 893.945 953.18 894.414C953.18 895.159 953.307 895.724 953.562 896.109C953.823 896.49 954.214 896.68 954.734 896.68C955.198 896.68 955.609 896.534 955.969 896.242C956.328 895.951 956.62 895.581 956.844 895.133C957.068 894.695 957.24 894.195 957.359 893.633C957.479 893.065 957.539 892.484 957.539 891.891ZM968.573 890.562C968.573 891.354 968.454 892.159 968.214 892.977C967.974 893.789 967.646 894.5 967.23 895.109C966.808 895.74 966.305 896.253 965.722 896.648C965.139 897.039 964.498 897.234 963.8 897.234C963.118 897.234 962.573 897.047 962.167 896.672C961.761 896.292 961.558 895.784 961.558 895.148C961.558 895.029 961.571 894.893 961.597 894.742C961.628 894.591 961.649 894.49 961.659 894.438L962.339 891.938C962.391 891.734 962.435 891.536 962.472 891.344C962.514 891.146 962.534 890.974 962.534 890.828C962.534 890.536 962.482 890.341 962.378 890.242C962.279 890.143 962.081 890.094 961.784 890.094C961.675 890.094 961.527 890.117 961.339 890.164C961.152 890.211 961.011 890.247 960.917 890.273L961.034 889.773C961.441 889.591 961.8 889.451 962.112 889.352C962.43 889.253 962.683 889.203 962.87 889.203C963.287 889.203 963.594 889.299 963.792 889.492C963.995 889.685 964.097 889.964 964.097 890.328C964.097 890.432 964.086 890.56 964.066 890.711C964.05 890.857 964.019 891.018 963.972 891.195L963.222 894.109C963.17 894.307 963.131 894.497 963.105 894.68C963.079 894.862 963.066 894.979 963.066 895.031C963.066 895.302 963.107 895.523 963.191 895.695C963.279 895.862 963.389 895.992 963.519 896.086C963.644 896.174 963.779 896.237 963.925 896.273C964.076 896.31 964.23 896.328 964.386 896.328C964.74 896.328 965.105 896.216 965.48 895.992C965.86 895.768 966.191 895.477 966.472 895.117C966.779 894.727 967.027 894.292 967.214 893.812C967.402 893.328 967.495 892.794 967.495 892.211C967.495 891.898 967.451 891.659 967.362 891.492C967.279 891.32 967.185 891.172 967.081 891.047C966.977 890.917 966.881 890.781 966.792 890.641C966.709 890.495 966.667 890.292 966.667 890.031C966.667 889.734 966.766 889.508 966.964 889.352C967.162 889.195 967.37 889.117 967.589 889.117C967.896 889.117 968.136 889.242 968.308 889.492C968.485 889.737 968.573 890.094 968.573 890.562ZM977.1 890.742C977.1 891.294 976.926 891.768 976.577 892.164C976.233 892.56 975.73 892.875 975.069 893.109C974.584 893.286 974.095 893.43 973.6 893.539C973.105 893.648 972.558 893.74 971.959 893.812C971.959 894.635 972.11 895.266 972.412 895.703C972.72 896.135 973.168 896.352 973.756 896.352C974.277 896.352 974.735 896.221 975.131 895.961C975.532 895.701 975.926 895.312 976.311 894.797L976.756 895.125C976.34 895.76 975.819 896.268 975.194 896.648C974.569 897.029 973.92 897.219 973.248 897.219C972.327 897.219 971.621 896.961 971.131 896.445C970.647 895.93 970.405 895.198 970.405 894.25C970.405 893.594 970.506 892.969 970.709 892.375C970.918 891.776 971.22 891.229 971.616 890.734C972.001 890.25 972.472 889.859 973.03 889.562C973.592 889.266 974.212 889.117 974.889 889.117C975.639 889.117 976.194 889.271 976.553 889.578C976.918 889.88 977.1 890.268 977.1 890.742ZM975.662 890.547C975.662 890.344 975.634 890.185 975.577 890.07C975.519 889.951 975.446 889.862 975.358 889.805C975.264 889.742 975.165 889.703 975.061 889.688C974.957 889.672 974.85 889.664 974.741 889.664C974.116 889.664 973.537 890.008 973.006 890.695C972.48 891.383 972.147 892.24 972.006 893.266C972.371 893.214 972.782 893.141 973.241 893.047C973.699 892.948 974.079 892.82 974.381 892.664C974.814 892.44 975.134 892.154 975.342 891.805C975.556 891.451 975.662 891.031 975.662 890.547ZM985.666 890.391C985.666 890.536 985.645 890.698 985.603 890.875C985.561 891.047 985.502 891.19 985.423 891.305C985.33 891.445 985.226 891.555 985.111 891.633C985.002 891.706 984.843 891.742 984.634 891.742C984.353 891.742 984.142 891.672 984.002 891.531C983.861 891.391 983.791 891.234 983.791 891.062C983.791 890.901 983.83 890.721 983.908 890.523C983.986 890.32 984.067 890.12 984.15 889.922C984.087 889.922 983.983 889.94 983.837 889.977C983.697 890.008 983.525 890.073 983.322 890.172C983.119 890.271 982.887 890.419 982.627 890.617C982.371 890.815 982.098 891.078 981.806 891.406L980.548 897H979.095L980.236 891.938C980.262 891.812 980.298 891.625 980.345 891.375C980.397 891.125 980.423 890.94 980.423 890.82C980.423 890.529 980.374 890.333 980.275 890.234C980.176 890.135 979.978 890.086 979.681 890.086C979.567 890.086 979.421 890.107 979.244 890.148C979.067 890.185 978.929 890.216 978.83 890.242L978.947 889.742C979.353 889.56 979.712 889.424 980.025 889.336C980.337 889.247 980.606 889.203 980.83 889.203C981.246 889.203 981.543 889.318 981.72 889.547C981.897 889.771 981.986 890.109 981.986 890.562H982.033C982.653 890.026 983.121 889.651 983.439 889.438C983.762 889.224 984.098 889.117 984.447 889.117C984.614 889.117 984.775 889.138 984.931 889.18C985.087 889.221 985.22 889.292 985.33 889.391C985.444 889.5 985.528 889.628 985.58 889.773C985.637 889.914 985.666 890.12 985.666 890.391ZM989.63 896.234C989.63 896.677 989.528 897.089 989.325 897.469C989.122 897.854 988.861 898.201 988.544 898.508C988.242 898.805 987.929 899.057 987.606 899.266C987.283 899.479 986.997 899.646 986.747 899.766L986.497 899.242C986.736 899.112 986.979 898.964 987.223 898.797C987.468 898.635 987.674 898.471 987.841 898.305C988.049 898.102 988.223 897.901 988.364 897.703C988.51 897.505 988.624 897.266 988.708 896.984H988.341C988.023 896.984 987.783 896.906 987.622 896.75C987.466 896.589 987.387 896.38 987.387 896.125C987.387 895.854 987.492 895.604 987.7 895.375C987.908 895.146 988.19 895.031 988.544 895.031C988.924 895.031 989.2 895.143 989.372 895.367C989.544 895.586 989.63 895.875 989.63 896.234ZM1001.77 888.367C1001.66 888.758 1001.54 889.206 1001.41 889.711C1001.28 890.211 1001.19 890.565 1001.14 890.773L1000.07 895.445C1000.06 895.487 1000.05 895.531 1000.04 895.578C1000.04 895.625 1000.03 895.669 1000.03 895.711C1000.03 895.846 1000.07 895.961 1000.13 896.055C1000.19 896.143 1000.27 896.208 1000.35 896.25C1000.46 896.302 1000.66 896.352 1000.95 896.398C1001.24 896.445 1001.47 896.474 1001.65 896.484L1001.53 897H996.261L996.386 896.484C996.547 896.474 996.795 896.453 997.128 896.422C997.467 896.385 997.704 896.349 997.839 896.312C997.98 896.271 998.118 896.18 998.253 896.039C998.389 895.893 998.477 895.724 998.519 895.531L999.8 889.969H997.855L997.995 889.352H998.425C998.967 889.352 999.474 889.26 999.948 889.078C1000.42 888.891 1000.81 888.654 1001.12 888.367H1001.77ZM1012.51 891.797C1012.51 892.823 1012.31 893.799 1011.93 894.727C1011.55 895.654 1011.02 896.477 1010.34 897.195C1009.68 897.904 1008.87 898.5 1007.91 898.984C1006.96 899.469 1005.95 899.771 1004.86 899.891V899.133L1005.59 899.062C1006.82 898.719 1007.82 898.18 1008.61 897.445C1009.4 896.716 1010 895.789 1010.4 894.664C1009.86 895.06 1009.35 895.331 1008.87 895.477C1008.39 895.617 1007.9 895.688 1007.4 895.688C1006.67 895.688 1006.05 895.424 1005.55 894.898C1005.05 894.367 1004.8 893.688 1004.8 892.859C1004.8 892.281 1004.91 891.724 1005.14 891.188C1005.37 890.651 1005.69 890.169 1006.09 889.742C1006.48 889.336 1006.96 889.005 1007.51 888.75C1008.08 888.49 1008.67 888.359 1009.28 888.359C1010.24 888.359 1011.02 888.667 1011.62 889.281C1012.21 889.896 1012.51 890.734 1012.51 891.797ZM1010.89 891.484C1010.89 890.698 1010.73 890.078 1010.4 889.625C1010.08 889.167 1009.66 888.938 1009.15 888.938C1008.69 888.938 1008.29 889.068 1007.95 889.328C1007.61 889.589 1007.33 889.914 1007.1 890.305C1006.88 890.685 1006.71 891.099 1006.61 891.547C1006.51 891.995 1006.46 892.391 1006.46 892.734C1006.46 893.354 1006.62 893.857 1006.94 894.242C1007.27 894.628 1007.7 894.82 1008.24 894.82C1008.64 894.82 1009.04 894.747 1009.44 894.602C1009.83 894.451 1010.21 894.211 1010.56 893.883C1010.62 893.701 1010.69 893.414 1010.76 893.023C1010.85 892.633 1010.89 892.12 1010.89 891.484ZM1023.13 888.008C1023.13 888.648 1022.91 889.247 1022.47 889.805C1022.03 890.357 1021.38 890.815 1020.52 891.18C1021.2 891.508 1021.69 891.88 1022 892.297C1022.31 892.708 1022.46 893.161 1022.46 893.656C1022.46 894.646 1022.01 895.495 1021.1 896.203C1020.19 896.911 1019.08 897.266 1017.77 897.266C1016.73 897.266 1015.92 897.021 1015.33 896.531C1014.74 896.042 1014.45 895.424 1014.45 894.68C1014.45 893.914 1014.69 893.255 1015.18 892.703C1015.67 892.146 1016.44 891.674 1017.5 891.289C1016.99 890.956 1016.6 890.594 1016.35 890.203C1016.11 889.807 1015.99 889.393 1015.99 888.961C1015.99 888.055 1016.41 887.273 1017.26 886.617C1018.11 885.956 1019.1 885.625 1020.2 885.625C1021.1 885.625 1021.81 885.852 1022.34 886.305C1022.87 886.758 1023.13 887.326 1023.13 888.008ZM1021.63 887.914C1021.63 887.419 1021.49 887.01 1021.21 886.688C1020.93 886.365 1020.52 886.203 1019.98 886.203C1019.3 886.203 1018.72 886.424 1018.24 886.867C1017.76 887.31 1017.52 887.865 1017.52 888.531C1017.52 889.062 1017.73 889.503 1018.13 889.852C1018.53 890.201 1019.17 890.549 1020.02 890.898C1020.53 890.617 1020.92 890.198 1021.2 889.641C1021.49 889.083 1021.63 888.508 1021.63 887.914ZM1020.9 894.117C1020.9 893.831 1020.84 893.576 1020.72 893.352C1020.6 893.128 1020.42 892.917 1020.17 892.719C1019.93 892.521 1019.62 892.328 1019.25 892.141C1018.88 891.953 1018.47 891.76 1018 891.562C1017.35 891.885 1016.85 892.312 1016.51 892.844C1016.17 893.375 1016 893.969 1016 894.625C1016 895.229 1016.18 895.724 1016.55 896.109C1016.92 896.49 1017.42 896.68 1018.06 896.68C1018.91 896.68 1019.6 896.43 1020.12 895.93C1020.64 895.424 1020.9 894.82 1020.9 894.117ZM1033.47 891.555C1033.47 892.299 1033.34 893.018 1033.07 893.711C1032.8 894.404 1032.44 895.005 1031.97 895.516C1031.48 896.052 1030.93 896.477 1030.3 896.789C1029.68 897.096 1028.96 897.25 1028.16 897.25C1027.12 897.25 1026.3 896.951 1025.72 896.352C1025.13 895.753 1024.83 895.003 1024.83 894.102C1024.83 893.315 1024.97 892.578 1025.24 891.891C1025.52 891.198 1025.9 890.586 1026.38 890.055C1026.85 889.534 1027.42 889.122 1028.07 888.82C1028.72 888.518 1029.42 888.367 1030.15 888.367C1031.21 888.367 1032.03 888.677 1032.61 889.297C1033.18 889.911 1033.47 890.664 1033.47 891.555ZM1031.81 891.203C1031.81 890.464 1031.65 889.904 1031.33 889.523C1031.02 889.143 1030.59 888.953 1030.04 888.953C1029.46 888.953 1028.95 889.13 1028.49 889.484C1028.03 889.833 1027.65 890.323 1027.33 890.953C1027.06 891.5 1026.85 892.089 1026.71 892.719C1026.57 893.349 1026.5 893.922 1026.5 894.438C1026.5 895.135 1026.65 895.682 1026.95 896.078C1027.25 896.469 1027.7 896.664 1028.29 896.664C1028.83 896.664 1029.32 896.505 1029.78 896.188C1030.23 895.865 1030.63 895.359 1030.97 894.672C1031.27 894.094 1031.48 893.495 1031.61 892.875C1031.74 892.255 1031.81 891.698 1031.81 891.203ZM1037.81 896.102C1037.81 896.393 1037.71 896.643 1037.49 896.852C1037.28 897.055 1037.03 897.156 1036.74 897.156C1036.45 897.156 1036.2 897.055 1035.98 896.852C1035.78 896.643 1035.67 896.393 1035.67 896.102C1035.67 895.81 1035.78 895.56 1035.98 895.352C1036.2 895.138 1036.45 895.031 1036.74 895.031C1037.03 895.031 1037.28 895.138 1037.49 895.352C1037.71 895.56 1037.81 895.81 1037.81 896.102Z" fill="black"/>
<path d="M744.652 864.922H744.112C744.066 864.734 743.98 864.513 743.855 864.258C743.735 863.997 743.599 863.753 743.448 863.523C743.292 863.284 743.12 863.076 742.933 862.898C742.751 862.716 742.573 862.612 742.402 862.586C742.24 862.565 742.037 862.549 741.792 862.539C741.547 862.529 741.321 862.523 741.112 862.523H740.659V871.391C740.659 871.562 740.696 871.721 740.769 871.867C740.842 872.008 740.969 872.117 741.152 872.195C741.245 872.232 741.441 872.281 741.737 872.344C742.04 872.406 742.274 872.44 742.441 872.445V873H737.206V872.445C737.352 872.435 737.573 872.414 737.87 872.383C738.172 872.352 738.381 872.312 738.495 872.266C738.667 872.198 738.792 872.102 738.87 871.977C738.954 871.846 738.995 871.674 738.995 871.461V862.523H738.542C738.381 862.523 738.18 862.529 737.941 862.539C737.701 862.544 737.472 862.56 737.253 862.586C737.081 862.607 736.902 862.711 736.714 862.898C736.532 863.081 736.362 863.289 736.206 863.523C736.05 863.758 735.912 864.008 735.792 864.273C735.672 864.534 735.589 864.75 735.542 864.922H734.995V861.914H744.652V864.922ZM756.686 873H752.069V872.445C752.475 872.419 752.811 872.367 753.077 872.289C753.347 872.211 753.483 872.115 753.483 872C753.483 871.953 753.478 871.896 753.467 871.828C753.457 871.76 753.441 871.701 753.42 871.648L752.498 869.164H748.616C748.47 869.529 748.35 869.846 748.256 870.117C748.168 870.388 748.087 870.638 748.014 870.867C747.946 871.091 747.899 871.273 747.873 871.414C747.847 871.555 747.834 871.669 747.834 871.758C747.834 871.966 747.998 872.128 748.327 872.242C748.655 872.357 749.024 872.424 749.436 872.445V873H745.264V872.445C745.399 872.435 745.569 872.406 745.772 872.359C745.975 872.307 746.142 872.24 746.272 872.156C746.48 872.016 746.642 871.87 746.756 871.719C746.871 871.562 746.983 871.349 747.092 871.078C747.649 869.688 748.264 868.125 748.936 866.391C749.608 864.656 750.207 863.112 750.733 861.758H751.358L755.053 871.32C755.131 871.523 755.22 871.688 755.319 871.812C755.418 871.938 755.556 872.06 755.733 872.18C755.853 872.253 756.009 872.315 756.202 872.367C756.394 872.414 756.556 872.44 756.686 872.445V873ZM752.217 868.469L750.537 864.172L748.889 868.469H752.217ZM766.783 869.703L766.548 873H757.884V872.445C758.009 872.435 758.189 872.417 758.423 872.391C758.663 872.365 758.83 872.331 758.923 872.289C759.08 872.221 759.192 872.122 759.259 871.992C759.332 871.862 759.369 871.695 759.369 871.492V863.555C759.369 863.378 759.337 863.221 759.275 863.086C759.218 862.951 759.101 862.841 758.923 862.758C758.804 862.695 758.634 862.635 758.416 862.578C758.202 862.516 758.025 862.479 757.884 862.469V861.914H762.564V862.469C762.418 862.474 762.228 862.5 761.994 862.547C761.765 862.594 761.598 862.635 761.494 862.672C761.317 862.734 761.194 862.841 761.127 862.992C761.064 863.143 761.033 863.305 761.033 863.477V870.922C761.033 871.266 761.048 871.534 761.08 871.727C761.116 871.914 761.197 872.06 761.322 872.164C761.442 872.258 761.619 872.32 761.853 872.352C762.093 872.378 762.426 872.391 762.853 872.391C763.046 872.391 763.246 872.385 763.455 872.375C763.663 872.365 763.861 872.344 764.048 872.312C764.231 872.281 764.397 872.24 764.548 872.188C764.705 872.13 764.819 872.06 764.892 871.977C765.106 871.737 765.353 871.375 765.634 870.891C765.921 870.401 766.119 870.005 766.228 869.703H766.783ZM779.098 873H775.989C775.39 872.073 774.723 871.154 773.989 870.242C773.26 869.326 772.494 868.438 771.692 867.578H771.489V871.438C771.489 871.609 771.52 871.763 771.583 871.898C771.651 872.034 771.77 872.143 771.942 872.227C772.026 872.263 772.179 872.307 772.403 872.359C772.632 872.411 772.822 872.44 772.973 872.445V873H768.372V872.445C768.492 872.435 768.666 872.419 768.895 872.398C769.124 872.378 769.286 872.346 769.38 872.305C769.536 872.237 769.648 872.138 769.716 872.008C769.789 871.872 769.825 871.711 769.825 871.523V863.523C769.825 863.346 769.794 863.193 769.731 863.062C769.674 862.932 769.557 862.826 769.38 862.742C769.239 862.674 769.072 862.615 768.88 862.562C768.687 862.51 768.518 862.479 768.372 862.469V861.914H772.973V862.469C772.828 862.474 772.645 862.497 772.427 862.539C772.208 862.581 772.046 862.62 771.942 862.656C771.765 862.719 771.645 862.823 771.583 862.969C771.52 863.115 771.489 863.273 771.489 863.445V867.273H771.645C772.114 866.878 772.575 866.466 773.028 866.039C773.481 865.607 773.893 865.177 774.262 864.75C774.674 864.276 774.973 863.898 775.161 863.617C775.354 863.331 775.45 863.078 775.45 862.859C775.45 862.781 775.401 862.719 775.302 862.672C775.208 862.62 775.098 862.578 774.973 862.547C774.828 862.516 774.697 862.497 774.583 862.492C774.468 862.482 774.374 862.474 774.302 862.469V861.914H778.458V862.469C778.442 862.469 778.408 862.471 778.356 862.477C778.304 862.482 778.244 862.487 778.177 862.492C778.104 862.497 778.031 862.508 777.958 862.523C777.885 862.539 777.791 862.557 777.677 862.578C777.494 862.62 777.304 862.688 777.106 862.781C776.914 862.87 776.755 862.982 776.63 863.117C776.093 863.727 775.533 864.357 774.95 865.008C774.367 865.659 773.789 866.253 773.216 866.789C774.007 867.685 774.661 868.456 775.177 869.102C775.697 869.747 776.249 870.438 776.833 871.172C777.057 871.453 777.281 871.68 777.505 871.852C777.729 872.018 777.921 872.143 778.083 872.227C778.218 872.294 778.387 872.346 778.591 872.383C778.794 872.419 778.963 872.44 779.098 872.445V873ZM785.094 873H780.102V872.445C780.242 872.435 780.445 872.419 780.711 872.398C780.977 872.378 781.164 872.346 781.273 872.305C781.445 872.237 781.57 872.146 781.648 872.031C781.727 871.911 781.766 871.747 781.766 871.539V863.508C781.766 863.326 781.737 863.174 781.68 863.055C781.622 862.93 781.487 862.826 781.273 862.742C781.117 862.68 780.919 862.622 780.68 862.57C780.445 862.513 780.253 862.479 780.102 862.469V861.914H785.094V862.469C784.932 862.474 784.74 862.495 784.516 862.531C784.292 862.562 784.096 862.604 783.93 862.656C783.732 862.719 783.599 862.82 783.531 862.961C783.464 863.102 783.43 863.258 783.43 863.43V871.453C783.43 871.625 783.466 871.779 783.539 871.914C783.617 872.044 783.747 872.148 783.93 872.227C784.039 872.268 784.216 872.315 784.461 872.367C784.711 872.414 784.922 872.44 785.094 872.445V873ZM798.659 862.469C798.514 862.474 798.29 862.516 797.987 862.594C797.685 862.672 797.469 862.753 797.339 862.836C797.152 862.966 797.024 863.216 796.956 863.586C796.894 863.956 796.862 864.424 796.862 864.992V873.109H796.183L789.464 864.039V869.758C789.464 870.398 789.503 870.891 789.581 871.234C789.665 871.578 789.79 871.823 789.956 871.969C790.076 872.083 790.323 872.19 790.698 872.289C791.073 872.388 791.321 872.44 791.441 872.445V873H786.894V872.445C787.034 872.435 787.271 872.385 787.605 872.297C787.938 872.203 788.146 872.12 788.23 872.047C788.412 871.901 788.537 871.68 788.605 871.383C788.672 871.081 788.706 870.568 788.706 869.844V864.383C788.706 864.143 788.665 863.904 788.581 863.664C788.498 863.424 788.386 863.24 788.245 863.109C788.058 862.938 787.803 862.792 787.48 862.672C787.162 862.547 786.904 862.479 786.706 862.469V861.914H789.87L796.105 870.367V865.094C796.105 864.448 796.063 863.953 795.98 863.609C795.896 863.26 795.777 863.029 795.62 862.914C795.474 862.815 795.235 862.719 794.902 862.625C794.573 862.531 794.323 862.479 794.152 862.469V861.914H798.659V862.469ZM811.092 868.57C810.967 868.586 810.798 868.612 810.584 868.648C810.376 868.68 810.207 868.727 810.077 868.789C809.92 868.867 809.808 868.979 809.741 869.125C809.678 869.266 809.647 869.432 809.647 869.625V870.484C809.647 871.109 809.649 871.531 809.655 871.75C809.665 871.969 809.676 872.148 809.686 872.289C808.993 872.602 808.303 872.841 807.616 873.008C806.928 873.174 806.254 873.258 805.592 873.258C804.884 873.258 804.202 873.125 803.545 872.859C802.889 872.594 802.316 872.216 801.827 871.727C801.332 871.232 800.939 870.63 800.647 869.922C800.355 869.214 800.209 868.422 800.209 867.547C800.209 866.703 800.347 865.922 800.623 865.203C800.905 864.479 801.301 863.852 801.811 863.32C802.306 862.799 802.894 862.396 803.577 862.109C804.264 861.818 804.998 861.672 805.78 861.672C806.405 861.672 806.949 861.747 807.412 861.898C807.876 862.049 808.285 862.232 808.639 862.445L808.959 861.914H809.584L809.655 865.789H809.014C808.905 865.362 808.769 864.943 808.608 864.531C808.446 864.115 808.238 863.742 807.983 863.414C807.728 863.086 807.415 862.826 807.045 862.633C806.681 862.435 806.243 862.336 805.733 862.336C805.176 862.336 804.678 862.451 804.241 862.68C803.803 862.904 803.423 863.24 803.1 863.688C802.782 864.12 802.537 864.659 802.366 865.305C802.194 865.951 802.108 866.672 802.108 867.469C802.108 868.172 802.191 868.836 802.358 869.461C802.53 870.081 802.777 870.617 803.1 871.07C803.423 871.534 803.827 871.898 804.311 872.164C804.795 872.43 805.345 872.562 805.959 872.562C806.418 872.562 806.834 872.492 807.209 872.352C807.59 872.211 807.858 872.062 808.014 871.906C808.056 871.635 808.077 871.362 808.077 871.086C808.082 870.81 808.084 870.576 808.084 870.383V869.773C808.084 869.555 808.053 869.362 807.991 869.195C807.933 869.023 807.811 868.898 807.623 868.82C807.452 868.742 807.217 868.685 806.92 868.648C806.629 868.607 806.399 868.581 806.233 868.57V868H811.092V868.57ZM828.911 873H824.309V872.445C824.434 872.435 824.614 872.419 824.848 872.398C825.088 872.378 825.252 872.346 825.341 872.305C825.497 872.242 825.611 872.148 825.684 872.023C825.757 871.893 825.794 871.727 825.794 871.523V867.578H820.583V871.438C820.583 871.62 820.611 871.773 820.669 871.898C820.731 872.023 820.851 872.133 821.028 872.227C821.117 872.273 821.273 872.32 821.497 872.367C821.726 872.414 821.906 872.44 822.036 872.445V873H817.434V872.445C817.559 872.435 817.739 872.419 817.973 872.398C818.213 872.378 818.377 872.346 818.466 872.305C818.622 872.242 818.736 872.148 818.809 872.023C818.882 871.893 818.919 871.727 818.919 871.523V863.523C818.919 863.357 818.885 863.206 818.817 863.07C818.749 862.93 818.632 862.82 818.466 862.742C818.325 862.674 818.153 862.615 817.95 862.562C817.752 862.51 817.58 862.479 817.434 862.469V861.914H822.036V862.469C821.89 862.474 821.71 862.497 821.497 862.539C821.289 862.581 821.132 862.62 821.028 862.656C820.851 862.719 820.731 862.823 820.669 862.969C820.611 863.115 820.583 863.273 820.583 863.445V866.883H825.794V863.523C825.794 863.357 825.76 863.206 825.692 863.07C825.624 862.93 825.507 862.82 825.341 862.742C825.2 862.674 825.028 862.615 824.825 862.562C824.627 862.51 824.455 862.479 824.309 862.469V861.914H828.911V862.469C828.765 862.474 828.585 862.497 828.372 862.539C828.164 862.581 828.007 862.62 827.903 862.656C827.726 862.719 827.606 862.823 827.544 862.969C827.486 863.115 827.458 863.273 827.458 863.445V871.438C827.458 871.62 827.486 871.773 827.544 871.898C827.606 872.023 827.726 872.133 827.903 872.227C827.992 872.273 828.148 872.32 828.372 872.367C828.601 872.414 828.781 872.44 828.911 872.445V873ZM840.602 869.734L840.391 873H831.187V872.445C831.344 872.435 831.552 872.414 831.812 872.383C832.073 872.346 832.242 872.31 832.32 872.273C832.487 872.195 832.602 872.094 832.664 871.969C832.732 871.844 832.766 871.685 832.766 871.492V863.523C832.766 863.352 832.737 863.201 832.68 863.07C832.622 862.935 832.503 862.826 832.32 862.742C832.18 862.674 831.99 862.615 831.75 862.562C831.516 862.51 831.328 862.479 831.187 862.469V861.914H839.766V864.586H839.18C839.076 864.19 838.849 863.771 838.5 863.328C838.156 862.88 837.828 862.635 837.516 862.594C837.354 862.573 837.161 862.557 836.937 862.547C836.714 862.536 836.458 862.531 836.172 862.531H834.43V866.938H835.68C836.081 866.938 836.372 866.901 836.555 866.828C836.742 866.75 836.906 866.622 837.047 866.445C837.161 866.294 837.258 866.094 837.336 865.844C837.419 865.589 837.474 865.349 837.5 865.125H838.086V869.461H837.5C837.479 869.211 837.422 868.948 837.328 868.672C837.24 868.391 837.146 868.188 837.047 868.062C836.885 867.859 836.701 867.727 836.492 867.664C836.289 867.602 836.018 867.57 835.68 867.57H834.43V870.898C834.43 871.232 834.453 871.495 834.5 871.688C834.547 871.88 834.638 872.026 834.773 872.125C834.909 872.224 835.094 872.289 835.328 872.32C835.562 872.346 835.896 872.359 836.328 872.359C836.5 872.359 836.727 872.359 837.008 872.359C837.289 872.359 837.526 872.349 837.719 872.328C837.917 872.307 838.12 872.271 838.328 872.219C838.542 872.161 838.693 872.086 838.781 871.992C839.021 871.742 839.271 871.365 839.531 870.859C839.797 870.349 839.966 869.974 840.039 869.734H840.602ZM852.87 873H848.253V872.445C848.659 872.419 848.995 872.367 849.261 872.289C849.532 872.211 849.667 872.115 849.667 872C849.667 871.953 849.662 871.896 849.652 871.828C849.641 871.76 849.626 871.701 849.605 871.648L848.683 869.164H844.8C844.654 869.529 844.534 869.846 844.441 870.117C844.352 870.388 844.271 870.638 844.198 870.867C844.131 871.091 844.084 871.273 844.058 871.414C844.032 871.555 844.019 871.669 844.019 871.758C844.019 871.966 844.183 872.128 844.511 872.242C844.839 872.357 845.209 872.424 845.62 872.445V873H841.448V872.445C841.584 872.435 841.753 872.406 841.956 872.359C842.159 872.307 842.326 872.24 842.456 872.156C842.665 872.016 842.826 871.87 842.941 871.719C843.055 871.562 843.167 871.349 843.277 871.078C843.834 869.688 844.448 868.125 845.12 866.391C845.792 864.656 846.391 863.112 846.917 861.758H847.542L851.237 871.32C851.316 871.523 851.404 871.688 851.503 871.812C851.602 871.938 851.74 872.06 851.917 872.18C852.037 872.253 852.193 872.315 852.386 872.367C852.579 872.414 852.74 872.44 852.87 872.445V873ZM848.402 868.469L846.722 864.172L845.073 868.469H848.402ZM864.686 867.523C864.686 868.466 864.509 869.284 864.155 869.977C863.801 870.669 863.34 871.237 862.772 871.68C862.199 872.122 861.556 872.453 860.842 872.672C860.129 872.891 859.392 873 858.631 873H854.037V872.445C854.189 872.445 854.384 872.432 854.623 872.406C854.868 872.375 855.03 872.341 855.108 872.305C855.264 872.237 855.376 872.138 855.444 872.008C855.517 871.872 855.553 871.711 855.553 871.523V863.523C855.553 863.346 855.522 863.188 855.459 863.047C855.402 862.906 855.285 862.794 855.108 862.711C854.946 862.633 854.772 862.576 854.584 862.539C854.397 862.503 854.235 862.479 854.1 862.469V861.914H858.944C859.61 861.914 860.267 862.018 860.912 862.227C861.558 862.43 862.121 862.706 862.6 863.055C863.251 863.518 863.761 864.125 864.131 864.875C864.501 865.625 864.686 866.508 864.686 867.523ZM862.772 867.516C862.772 866.771 862.673 866.099 862.475 865.5C862.277 864.896 861.988 864.37 861.608 863.922C861.248 863.495 860.806 863.159 860.28 862.914C859.759 862.669 859.178 862.547 858.537 862.547C858.324 862.547 858.082 862.552 857.811 862.562C857.545 862.568 857.347 862.573 857.217 862.578V871.102C857.217 871.576 857.355 871.904 857.631 872.086C857.907 872.268 858.332 872.359 858.905 872.359C859.566 872.359 860.144 872.242 860.639 872.008C861.134 871.773 861.535 871.448 861.842 871.031C862.165 870.594 862.399 870.089 862.545 869.516C862.696 868.938 862.772 868.271 862.772 867.516ZM873.752 867.914C873.986 868.174 874.158 868.461 874.267 868.773C874.382 869.081 874.439 869.44 874.439 869.852C874.439 870.831 874.077 871.638 873.353 872.273C872.629 872.909 871.731 873.227 870.658 873.227C870.163 873.227 869.668 873.151 869.173 873C868.679 872.844 868.252 872.656 867.892 872.438L867.556 873.008H866.931L866.822 869.211H867.455C867.585 869.68 867.736 870.104 867.908 870.484C868.085 870.859 868.317 871.211 868.603 871.539C868.874 871.846 869.189 872.091 869.548 872.273C869.913 872.456 870.335 872.547 870.814 872.547C871.173 872.547 871.486 872.5 871.752 872.406C872.022 872.312 872.241 872.18 872.408 872.008C872.574 871.836 872.697 871.635 872.775 871.406C872.858 871.172 872.9 870.904 872.9 870.602C872.9 870.159 872.775 869.747 872.525 869.367C872.275 868.982 871.903 868.69 871.408 868.492C871.069 868.357 870.681 868.208 870.244 868.047C869.806 867.88 869.429 867.724 869.111 867.578C868.486 867.297 867.999 866.93 867.65 866.477C867.306 866.018 867.134 865.422 867.134 864.688C867.134 864.266 867.22 863.872 867.392 863.508C867.564 863.143 867.809 862.818 868.127 862.531C868.429 862.26 868.785 862.049 869.197 861.898C869.608 861.742 870.038 861.664 870.486 861.664C870.996 861.664 871.452 861.742 871.853 861.898C872.259 862.055 872.629 862.237 872.962 862.445L873.283 861.914H873.908L873.97 865.594H873.337C873.223 865.172 873.093 864.768 872.947 864.383C872.806 863.997 872.621 863.648 872.392 863.336C872.168 863.034 871.895 862.794 871.572 862.617C871.249 862.435 870.853 862.344 870.384 862.344C869.89 862.344 869.468 862.503 869.119 862.82C868.77 863.138 868.595 863.526 868.595 863.984C868.595 864.464 868.707 864.862 868.931 865.18C869.155 865.492 869.481 865.75 869.908 865.953C870.288 866.135 870.66 866.294 871.025 866.43C871.395 866.56 871.752 866.701 872.095 866.852C872.408 866.987 872.707 867.141 872.994 867.312C873.285 867.484 873.538 867.685 873.752 867.914ZM879.442 866.336C879.442 866.628 879.335 866.878 879.122 867.086C878.914 867.294 878.664 867.398 878.372 867.398C878.08 867.398 877.828 867.294 877.614 867.086C877.406 866.878 877.302 866.628 877.302 866.336C877.302 866.044 877.406 865.794 877.614 865.586C877.822 865.372 878.075 865.266 878.372 865.266C878.669 865.266 878.921 865.372 879.13 865.586C879.338 865.794 879.442 866.044 879.442 866.336ZM879.442 872.102C879.442 872.393 879.335 872.643 879.122 872.852C878.914 873.055 878.664 873.156 878.372 873.156C878.08 873.156 877.828 873.055 877.614 872.852C877.406 872.643 877.302 872.393 877.302 872.102C877.302 871.81 877.406 871.56 877.614 871.352C877.828 871.138 878.08 871.031 878.372 871.031C878.664 871.031 878.914 871.138 879.122 871.352C879.335 871.56 879.442 871.81 879.442 872.102ZM897.894 873H894.909C894.248 871.964 893.649 871.068 893.112 870.312C892.581 869.557 892.003 868.779 891.378 867.977H890.245V871.492C890.245 871.674 890.274 871.836 890.331 871.977C890.389 872.112 890.511 872.216 890.698 872.289C890.792 872.326 890.956 872.359 891.191 872.391C891.425 872.422 891.623 872.44 891.784 872.445V873H887.097V872.445C887.222 872.435 887.402 872.417 887.636 872.391C887.876 872.365 888.042 872.331 888.136 872.289C888.292 872.221 888.404 872.122 888.472 871.992C888.545 871.862 888.581 871.695 888.581 871.492V863.477C888.581 863.294 888.555 863.133 888.503 862.992C888.451 862.852 888.329 862.745 888.136 862.672C888.006 862.625 887.836 862.583 887.628 862.547C887.42 862.505 887.243 862.479 887.097 862.469V861.914H892.214C892.683 861.914 893.123 861.964 893.534 862.062C893.946 862.156 894.318 862.31 894.652 862.523C894.974 862.732 895.232 863.005 895.425 863.344C895.618 863.677 895.714 864.081 895.714 864.555C895.714 864.982 895.649 865.359 895.519 865.688C895.389 866.016 895.196 866.299 894.941 866.539C894.706 866.763 894.425 866.958 894.097 867.125C893.769 867.286 893.407 867.424 893.011 867.539C893.558 868.263 894.011 868.872 894.37 869.367C894.735 869.862 895.18 870.464 895.706 871.172C895.935 871.484 896.141 871.716 896.323 871.867C896.511 872.013 896.696 872.133 896.878 872.227C897.014 872.294 897.183 872.346 897.386 872.383C897.589 872.419 897.758 872.44 897.894 872.445V873ZM893.784 864.734C893.784 864.062 893.592 863.531 893.206 863.141C892.821 862.745 892.277 862.547 891.573 862.547H890.245V867.305H891.269C891.987 867.305 892.586 867.076 893.066 866.617C893.545 866.154 893.784 865.526 893.784 864.734ZM908.452 869.734L908.241 873H899.037V872.445C899.194 872.435 899.402 872.414 899.662 872.383C899.923 872.346 900.092 872.31 900.17 872.273C900.337 872.195 900.452 872.094 900.514 871.969C900.582 871.844 900.616 871.685 900.616 871.492V863.523C900.616 863.352 900.587 863.201 900.53 863.07C900.472 862.935 900.353 862.826 900.17 862.742C900.03 862.674 899.84 862.615 899.6 862.562C899.366 862.51 899.178 862.479 899.037 862.469V861.914H907.616V864.586H907.03C906.926 864.19 906.699 863.771 906.35 863.328C906.006 862.88 905.678 862.635 905.366 862.594C905.204 862.573 905.011 862.557 904.787 862.547C904.564 862.536 904.308 862.531 904.022 862.531H902.28V866.938H903.53C903.931 866.938 904.222 866.901 904.405 866.828C904.592 866.75 904.756 866.622 904.897 866.445C905.011 866.294 905.108 866.094 905.186 865.844C905.269 865.589 905.324 865.349 905.35 865.125H905.936V869.461H905.35C905.329 869.211 905.272 868.948 905.178 868.672C905.09 868.391 904.996 868.188 904.897 868.062C904.735 867.859 904.551 867.727 904.342 867.664C904.139 867.602 903.868 867.57 903.53 867.57H902.28V870.898C902.28 871.232 902.303 871.495 902.35 871.688C902.397 871.88 902.488 872.026 902.623 872.125C902.759 872.224 902.944 872.289 903.178 872.32C903.412 872.346 903.746 872.359 904.178 872.359C904.35 872.359 904.577 872.359 904.858 872.359C905.139 872.359 905.376 872.349 905.569 872.328C905.767 872.307 905.97 872.271 906.178 872.219C906.392 872.161 906.543 872.086 906.631 871.992C906.871 871.742 907.121 871.365 907.381 870.859C907.647 870.349 907.816 869.974 907.889 869.734H908.452ZM923.728 873H918.83V872.445C919.007 872.44 919.233 872.422 919.509 872.391C919.791 872.359 919.983 872.315 920.087 872.258C920.249 872.159 920.366 872.047 920.439 871.922C920.517 871.792 920.556 871.63 920.556 871.438V863.375H920.439L916.658 872.82H916.267L912.666 863.18H912.564V869.797C912.564 870.438 912.603 870.924 912.681 871.258C912.765 871.591 912.89 871.831 913.056 871.977C913.171 872.086 913.408 872.19 913.767 872.289C914.127 872.388 914.361 872.44 914.47 872.445V873H909.994V872.445C910.228 872.424 910.473 872.385 910.728 872.328C910.989 872.271 911.189 872.185 911.33 872.07C911.512 871.924 911.637 871.701 911.705 871.398C911.772 871.096 911.806 870.591 911.806 869.883V864.211C911.806 863.883 911.767 863.615 911.689 863.406C911.611 863.198 911.499 863.029 911.353 862.898C911.192 862.758 910.994 862.654 910.759 862.586C910.525 862.518 910.293 862.479 910.064 862.469V861.914H913.845L917.017 870.227L919.728 863.273C919.827 863.018 919.91 862.753 919.978 862.477C920.051 862.195 920.09 862.008 920.095 861.914H923.712V862.469C923.567 862.474 923.379 862.497 923.15 862.539C922.926 862.581 922.762 862.62 922.658 862.656C922.481 862.719 922.361 862.823 922.298 862.969C922.236 863.115 922.205 863.273 922.205 863.445V871.438C922.205 871.62 922.236 871.773 922.298 871.898C922.361 872.023 922.481 872.133 922.658 872.227C922.752 872.279 922.918 872.328 923.158 872.375C923.397 872.417 923.587 872.44 923.728 872.445V873ZM936.364 873H931.747V872.445C932.153 872.419 932.489 872.367 932.755 872.289C933.026 872.211 933.161 872.115 933.161 872C933.161 871.953 933.156 871.896 933.145 871.828C933.135 871.76 933.119 871.701 933.098 871.648L932.177 869.164H928.294C928.148 869.529 928.028 869.846 927.934 870.117C927.846 870.388 927.765 870.638 927.692 870.867C927.624 871.091 927.578 871.273 927.552 871.414C927.526 871.555 927.512 871.669 927.512 871.758C927.512 871.966 927.677 872.128 928.005 872.242C928.333 872.357 928.703 872.424 929.114 872.445V873H924.942V872.445C925.078 872.435 925.247 872.406 925.45 872.359C925.653 872.307 925.82 872.24 925.95 872.156C926.158 872.016 926.32 871.87 926.434 871.719C926.549 871.562 926.661 871.349 926.77 871.078C927.328 869.688 927.942 868.125 928.614 866.391C929.286 864.656 929.885 863.112 930.411 861.758H931.036L934.731 871.32C934.809 871.523 934.898 871.688 934.997 871.812C935.096 871.938 935.234 872.06 935.411 872.18C935.531 872.253 935.687 872.315 935.88 872.367C936.072 872.414 936.234 872.44 936.364 872.445V873ZM931.895 868.469L930.216 864.172L928.567 868.469H931.895ZM942.406 873H937.414V872.445C937.555 872.435 937.758 872.419 938.023 872.398C938.289 872.378 938.477 872.346 938.586 872.305C938.758 872.237 938.883 872.146 938.961 872.031C939.039 871.911 939.078 871.747 939.078 871.539V863.508C939.078 863.326 939.049 863.174 938.992 863.055C938.935 862.93 938.799 862.826 938.586 862.742C938.43 862.68 938.232 862.622 937.992 862.57C937.758 862.513 937.565 862.479 937.414 862.469V861.914H942.406V862.469C942.245 862.474 942.052 862.495 941.828 862.531C941.604 862.562 941.409 862.604 941.242 862.656C941.044 862.719 940.911 862.82 940.844 862.961C940.776 863.102 940.742 863.258 940.742 863.43V871.453C940.742 871.625 940.779 871.779 940.852 871.914C940.93 872.044 941.06 872.148 941.242 872.227C941.352 872.268 941.529 872.315 941.773 872.367C942.023 872.414 942.234 872.44 942.406 872.445V873ZM955.972 862.469C955.826 862.474 955.602 862.516 955.3 862.594C954.998 862.672 954.782 862.753 954.652 862.836C954.464 862.966 954.336 863.216 954.269 863.586C954.206 863.956 954.175 864.424 954.175 864.992V873.109H953.495L946.777 864.039V869.758C946.777 870.398 946.816 870.891 946.894 871.234C946.977 871.578 947.102 871.823 947.269 871.969C947.389 872.083 947.636 872.19 948.011 872.289C948.386 872.388 948.633 872.44 948.753 872.445V873H944.206V872.445C944.347 872.435 944.584 872.385 944.917 872.297C945.251 872.203 945.459 872.12 945.542 872.047C945.724 871.901 945.849 871.68 945.917 871.383C945.985 871.081 946.019 870.568 946.019 869.844V864.383C946.019 864.143 945.977 863.904 945.894 863.664C945.81 863.424 945.698 863.24 945.558 863.109C945.37 862.938 945.115 862.792 944.792 862.672C944.474 862.547 944.217 862.479 944.019 862.469V861.914H947.183L953.417 870.367V865.094C953.417 864.448 953.376 863.953 953.292 863.609C953.209 863.26 953.089 863.029 952.933 862.914C952.787 862.815 952.547 862.719 952.214 862.625C951.886 862.531 951.636 862.479 951.464 862.469V861.914H955.972V862.469ZM967.181 873H962.189V872.445C962.33 872.435 962.533 872.419 962.798 872.398C963.064 872.378 963.252 872.346 963.361 872.305C963.533 872.237 963.658 872.146 963.736 872.031C963.814 871.911 963.853 871.747 963.853 871.539V863.508C963.853 863.326 963.824 863.174 963.767 863.055C963.71 862.93 963.574 862.826 963.361 862.742C963.205 862.68 963.007 862.622 962.767 862.57C962.533 862.513 962.34 862.479 962.189 862.469V861.914H967.181V862.469C967.02 862.474 966.827 862.495 966.603 862.531C966.379 862.562 966.184 862.604 966.017 862.656C965.819 862.719 965.686 862.82 965.619 862.961C965.551 863.102 965.517 863.258 965.517 863.43V871.453C965.517 871.625 965.554 871.779 965.627 871.914C965.705 872.044 965.835 872.148 966.017 872.227C966.127 872.268 966.304 872.315 966.548 872.367C966.798 872.414 967.009 872.44 967.181 872.445V873ZM980.747 862.469C980.601 862.474 980.377 862.516 980.075 862.594C979.773 862.672 979.557 862.753 979.427 862.836C979.239 862.966 979.111 863.216 979.044 863.586C978.981 863.956 978.95 864.424 978.95 864.992V873.109H978.27L971.552 864.039V869.758C971.552 870.398 971.591 870.891 971.669 871.234C971.752 871.578 971.877 871.823 972.044 871.969C972.164 872.083 972.411 872.19 972.786 872.289C973.161 872.388 973.408 872.44 973.528 872.445V873H968.981V872.445C969.122 872.435 969.359 872.385 969.692 872.297C970.026 872.203 970.234 872.12 970.317 872.047C970.499 871.901 970.624 871.68 970.692 871.383C970.76 871.081 970.794 870.568 970.794 869.844V864.383C970.794 864.143 970.752 863.904 970.669 863.664C970.585 863.424 970.473 863.24 970.333 863.109C970.145 862.938 969.89 862.792 969.567 862.672C969.249 862.547 968.992 862.479 968.794 862.469V861.914H971.958L978.192 870.367V865.094C978.192 864.448 978.151 863.953 978.067 863.609C977.984 863.26 977.864 863.029 977.708 862.914C977.562 862.815 977.322 862.719 976.989 862.625C976.661 862.531 976.411 862.479 976.239 862.469V861.914H980.747V862.469ZM996.011 869.703L995.777 873H987.112V872.445C987.237 872.435 987.417 872.417 987.652 872.391C987.891 872.365 988.058 872.331 988.152 872.289C988.308 872.221 988.42 872.122 988.487 871.992C988.56 871.862 988.597 871.695 988.597 871.492V863.555C988.597 863.378 988.566 863.221 988.503 863.086C988.446 862.951 988.329 862.841 988.152 862.758C988.032 862.695 987.862 862.635 987.644 862.578C987.43 862.516 987.253 862.479 987.112 862.469V861.914H991.792V862.469C991.646 862.474 991.456 862.5 991.222 862.547C990.993 862.594 990.826 862.635 990.722 862.672C990.545 862.734 990.422 862.841 990.355 862.992C990.292 863.143 990.261 863.305 990.261 863.477V870.922C990.261 871.266 990.277 871.534 990.308 871.727C990.344 871.914 990.425 872.06 990.55 872.164C990.67 872.258 990.847 872.32 991.081 872.352C991.321 872.378 991.654 872.391 992.081 872.391C992.274 872.391 992.474 872.385 992.683 872.375C992.891 872.365 993.089 872.344 993.277 872.312C993.459 872.281 993.626 872.24 993.777 872.188C993.933 872.13 994.047 872.06 994.12 871.977C994.334 871.737 994.581 871.375 994.862 870.891C995.149 870.401 995.347 870.005 995.456 869.703H996.011ZM1002.41 873H997.42V872.445C997.561 872.435 997.764 872.419 998.03 872.398C998.295 872.378 998.483 872.346 998.592 872.305C998.764 872.237 998.889 872.146 998.967 872.031C999.045 871.911 999.084 871.747 999.084 871.539V863.508C999.084 863.326 999.056 863.174 998.998 863.055C998.941 862.93 998.806 862.826 998.592 862.742C998.436 862.68 998.238 862.622 997.998 862.57C997.764 862.513 997.571 862.479 997.42 862.469V861.914H1002.41V862.469C1002.25 862.474 1002.06 862.495 1001.83 862.531C1001.61 862.562 1001.42 862.604 1001.25 862.656C1001.05 862.719 1000.92 862.82 1000.85 862.961C1000.78 863.102 1000.75 863.258 1000.75 863.43V871.453C1000.75 871.625 1000.78 871.779 1000.86 871.914C1000.94 872.044 1001.07 872.148 1001.25 872.227C1001.36 872.268 1001.53 872.315 1001.78 872.367C1002.03 872.414 1002.24 872.44 1002.41 872.445V873ZM1015.33 868.57C1015.2 868.586 1015.04 868.612 1014.82 868.648C1014.61 868.68 1014.44 868.727 1014.31 868.789C1014.16 868.867 1014.05 868.979 1013.98 869.125C1013.92 869.266 1013.88 869.432 1013.88 869.625V870.484C1013.88 871.109 1013.89 871.531 1013.89 871.75C1013.9 871.969 1013.91 872.148 1013.92 872.289C1013.23 872.602 1012.54 872.841 1011.85 873.008C1011.17 873.174 1010.49 873.258 1009.83 873.258C1009.12 873.258 1008.44 873.125 1007.78 872.859C1007.13 872.594 1006.55 872.216 1006.06 871.727C1005.57 871.232 1005.18 870.63 1004.88 869.922C1004.59 869.214 1004.45 868.422 1004.45 867.547C1004.45 866.703 1004.58 865.922 1004.86 865.203C1005.14 864.479 1005.54 863.852 1006.05 863.32C1006.54 862.799 1007.13 862.396 1007.81 862.109C1008.5 861.818 1009.24 861.672 1010.02 861.672C1010.64 861.672 1011.19 861.747 1011.65 861.898C1012.11 862.049 1012.52 862.232 1012.88 862.445L1013.2 861.914H1013.82L1013.89 865.789H1013.25C1013.14 865.362 1013.01 864.943 1012.85 864.531C1012.68 864.115 1012.48 863.742 1012.22 863.414C1011.97 863.086 1011.65 862.826 1011.28 862.633C1010.92 862.435 1010.48 862.336 1009.97 862.336C1009.41 862.336 1008.92 862.451 1008.48 862.68C1008.04 862.904 1007.66 863.24 1007.34 863.688C1007.02 864.12 1006.77 864.659 1006.6 865.305C1006.43 865.951 1006.35 866.672 1006.35 867.469C1006.35 868.172 1006.43 868.836 1006.6 869.461C1006.77 870.081 1007.01 870.617 1007.34 871.07C1007.66 871.534 1008.06 871.898 1008.55 872.164C1009.03 872.43 1009.58 872.562 1010.2 872.562C1010.66 872.562 1011.07 872.492 1011.45 872.352C1011.83 872.211 1012.1 872.062 1012.25 871.906C1012.29 871.635 1012.31 871.362 1012.31 871.086C1012.32 870.81 1012.32 870.576 1012.32 870.383V869.773C1012.32 869.555 1012.29 869.362 1012.23 869.195C1012.17 869.023 1012.05 868.898 1011.86 868.82C1011.69 868.742 1011.45 868.685 1011.16 868.648C1010.87 868.607 1010.64 868.581 1010.47 868.57V868H1015.33V868.57ZM1028.49 873H1023.89V872.445C1024.01 872.435 1024.19 872.419 1024.43 872.398C1024.67 872.378 1024.83 872.346 1024.92 872.305C1025.07 872.242 1025.19 872.148 1025.26 872.023C1025.34 871.893 1025.37 871.727 1025.37 871.523V867.578H1020.16V871.438C1020.16 871.62 1020.19 871.773 1020.25 871.898C1020.31 872.023 1020.43 872.133 1020.61 872.227C1020.69 872.273 1020.85 872.32 1021.07 872.367C1021.3 872.414 1021.48 872.44 1021.61 872.445V873H1017.01V872.445C1017.14 872.435 1017.32 872.419 1017.55 872.398C1017.79 872.378 1017.96 872.346 1018.04 872.305C1018.2 872.242 1018.31 872.148 1018.39 872.023C1018.46 871.893 1018.5 871.727 1018.5 871.523V863.523C1018.5 863.357 1018.46 863.206 1018.4 863.07C1018.33 862.93 1018.21 862.82 1018.04 862.742C1017.9 862.674 1017.73 862.615 1017.53 862.562C1017.33 862.51 1017.16 862.479 1017.01 862.469V861.914H1021.61V862.469C1021.47 862.474 1021.29 862.497 1021.07 862.539C1020.87 862.581 1020.71 862.62 1020.61 862.656C1020.43 862.719 1020.31 862.823 1020.25 862.969C1020.19 863.115 1020.16 863.273 1020.16 863.445V866.883H1025.37V863.523C1025.37 863.357 1025.34 863.206 1025.27 863.07C1025.2 862.93 1025.09 862.82 1024.92 862.742C1024.78 862.674 1024.61 862.615 1024.4 862.562C1024.21 862.51 1024.03 862.479 1023.89 862.469V861.914H1028.49V862.469C1028.34 862.474 1028.16 862.497 1027.95 862.539C1027.74 862.581 1027.59 862.62 1027.48 862.656C1027.3 862.719 1027.18 862.823 1027.12 862.969C1027.06 863.115 1027.04 863.273 1027.04 863.445V871.438C1027.04 871.62 1027.06 871.773 1027.12 871.898C1027.18 872.023 1027.3 872.133 1027.48 872.227C1027.57 872.273 1027.73 872.32 1027.95 872.367C1028.18 872.414 1028.36 872.44 1028.49 872.445V873ZM1039.87 864.922H1039.33C1039.28 864.734 1039.2 864.513 1039.07 864.258C1038.95 863.997 1038.82 863.753 1038.66 863.523C1038.51 863.284 1038.34 863.076 1038.15 862.898C1037.97 862.716 1037.79 862.612 1037.62 862.586C1037.46 862.565 1037.25 862.549 1037.01 862.539C1036.76 862.529 1036.54 862.523 1036.33 862.523H1035.88V871.391C1035.88 871.562 1035.91 871.721 1035.98 871.867C1036.06 872.008 1036.18 872.117 1036.37 872.195C1036.46 872.232 1036.66 872.281 1036.95 872.344C1037.26 872.406 1037.49 872.44 1037.66 872.445V873H1032.42V872.445C1032.57 872.435 1032.79 872.414 1033.09 872.383C1033.39 872.352 1033.6 872.312 1033.71 872.266C1033.88 872.198 1034.01 872.102 1034.09 871.977C1034.17 871.846 1034.21 871.674 1034.21 871.461V862.523H1033.76C1033.6 862.523 1033.4 862.529 1033.16 862.539C1032.92 862.544 1032.69 862.56 1032.47 862.586C1032.3 862.607 1032.12 862.711 1031.93 862.898C1031.75 863.081 1031.58 863.289 1031.42 863.523C1031.27 863.758 1031.13 864.008 1031.01 864.273C1030.89 864.534 1030.8 864.75 1030.76 864.922H1030.21V861.914H1039.87V864.922Z" fill="black"/>
<path d="M46 139L40 133L46 127" stroke="black" stroke-width="2" stroke-linecap="round" stroke-linejoin="round"/>
<path d="M1396 137V133" stroke="black" stroke-width="2" stroke-linecap="round" stroke-linejoin="round"/>
<path d="M1396 129H1396.01" stroke="black" stroke-width="2" stroke-linecap="round" stroke-linejoin="round"/>
<path d="M1400.23 157.758C1399.98 157.518 1399.69 157.327 1399.38 157.197C1399.06 157.067 1398.71 157 1398.37 157C1398.02 157 1397.68 157.067 1397.36 157.197C1397.04 157.327 1396.75 157.518 1396.51 157.758L1396 158.256L1395.49 157.758C1395 157.273 1394.33 157 1393.63 157C1392.93 157 1392.26 157.273 1391.77 157.758C1391.28 158.243 1391 158.901 1391 159.587C1391 160.273 1391.28 160.93 1391.77 161.415L1392.28 161.914L1396 165.571L1399.72 161.914L1400.23 161.415C1400.47 161.175 1400.67 160.89 1400.8 160.576C1400.93 160.263 1401 159.926 1401 159.587C1401 159.247 1400.93 158.911 1400.8 158.597C1400.67 158.283 1400.47 157.998 1400.23 157.758V157.758Z" stroke="black" stroke-width="2" stroke-linecap="round" stroke-linejoin="round"/>
<path d="M1400.5 190.5V192.5C1400.5 192.765 1400.39 193.02 1400.21 193.207C1400.02 193.395 1399.77 193.5 1399.5 193.5H1392.5C1392.23 193.5 1391.98 193.395 1391.79 193.207C1391.61 193.02 1391.5 192.765 1391.5 192.5V190.5" stroke="black" stroke-width="2" stroke-linecap="round" stroke-linejoin="round"/>
<path d="M1393.5 188L1396 190.5L1398.5 188" stroke="black" stroke-width="2" stroke-linecap="round" stroke-linejoin="round"/>
<path d="M1396 190.5V184.5" stroke="black" stroke-width="2" stroke-linecap="round" stroke-linejoin="round"/>
<path d="M1396 980V966" stroke="black" stroke-width="2" stroke-linecap="round" stroke-linejoin="round"/>
<path d="M1389 973L1396 966L1403 973" stroke="black" stroke-width="2" stroke-linecap="round" stroke-linejoin="round"/>
<rect width="1440" height="89" fill="white"/>
<circle cx="1392" cy="45" r="16" fill="#F1F1F1"/>
<path d="M1396.21 46.2109C1396.12 47.4349 1395.67 48.3984 1394.85 49.1016C1394.04 49.8047 1392.97 50.1562 1391.63 50.1562C1390.17 50.1562 1389.03 49.6667 1388.19 48.6875C1387.35 47.7031 1386.94 46.3542 1386.94 44.6406V43.9453C1386.94 42.8516 1387.13 41.888 1387.52 41.0547C1387.9 40.2214 1388.45 39.5833 1389.16 39.1406C1389.88 38.6927 1390.72 38.4688 1391.66 38.4688C1392.98 38.4688 1394.03 38.8203 1394.84 39.5234C1395.64 40.2266 1396.1 41.2135 1396.23 42.4844H1393.88C1393.83 41.75 1393.62 41.2188 1393.27 40.8906C1392.92 40.5573 1392.38 40.3906 1391.66 40.3906C1390.88 40.3906 1390.3 40.6719 1389.91 41.2344C1389.52 41.7917 1389.32 42.6589 1389.31 43.8359V44.6953C1389.31 45.9245 1389.5 46.8229 1389.87 47.3906C1390.24 47.9583 1390.83 48.2422 1391.63 48.2422C1392.36 48.2422 1392.9 48.0781 1393.25 47.75C1393.61 47.4167 1393.82 46.9036 1393.87 46.2109H1396.21Z" fill="black"/>
<path d="M687.66 47.1113C687.378 47.1387 687.127 47.1706 686.908 47.207C686.689 47.2435 686.416 47.3164 686.088 47.4258C685.714 47.5443 685.468 47.7402 685.35 48.0137C685.231 48.2871 685.172 48.5742 685.172 48.875V51.1309C685.172 51.5866 685.176 51.9557 685.186 52.2383C685.195 52.5117 685.208 52.8535 685.227 53.2637C684.315 53.8105 682.966 54.3255 681.18 54.8086C679.402 55.2917 677.766 55.5332 676.271 55.5332C674.868 55.5332 673.551 55.319 672.32 54.8906C671.09 54.4622 670.01 53.8197 669.08 52.9629C668.15 52.1152 667.417 51.0625 666.879 49.8047C666.35 48.5469 666.086 47.1068 666.086 45.4844C666.086 43.9714 666.337 42.5723 666.838 41.2871C667.339 40.002 668.064 38.8945 669.012 37.9648C669.941 37.0443 671.072 36.3333 672.402 35.832C673.742 35.3307 675.223 35.0801 676.846 35.0801C677.949 35.0801 678.969 35.2168 679.908 35.4902C680.847 35.7546 681.622 36.0417 682.232 36.3516L683.08 35.5996H684.27L684.393 42.6816H683.189C682.497 40.5579 681.667 38.9811 680.701 37.9512C679.735 36.9212 678.514 36.4062 677.037 36.4062C675.287 36.4062 673.934 37.1719 672.977 38.7031C672.029 40.2344 671.555 42.3444 671.555 45.0332C671.555 47.8861 672.02 50.1191 672.949 51.7324C673.888 53.3457 675.214 54.1523 676.928 54.1523C677.73 54.1523 678.441 54.0339 679.061 53.7969C679.689 53.5508 680.177 53.2682 680.523 52.9492V49.0117C680.523 48.6836 680.464 48.4102 680.346 48.1914C680.227 47.9635 679.99 47.7676 679.635 47.6035C679.361 47.4759 679.02 47.3711 678.609 47.2891C678.199 47.207 677.857 47.1478 677.584 47.1113V46.0449H687.66V47.1113ZM704.148 54.7129C703.747 54.8861 703.273 55.0456 702.727 55.1914C702.18 55.3372 701.601 55.4102 700.99 55.4102C699.869 55.4102 699.044 55.2461 698.516 54.918C697.987 54.5807 697.627 54.1022 697.436 53.4824H697.354C697.044 53.7923 696.743 54.0566 696.451 54.2754C696.169 54.4941 695.863 54.681 695.535 54.8359C695.107 55.0365 694.692 55.1823 694.291 55.2734C693.899 55.3737 693.348 55.4238 692.637 55.4238C691.579 55.4238 690.677 55.1139 689.93 54.4941C689.182 53.8652 688.809 53.0358 688.809 52.0059C688.809 51.4134 688.891 50.9121 689.055 50.502C689.219 50.0827 689.451 49.7135 689.752 49.3945C690.025 49.1029 690.34 48.8613 690.695 48.6699C691.06 48.4785 691.456 48.3008 691.885 48.1367C692.705 47.8359 693.689 47.526 694.838 47.207C695.986 46.8789 696.825 46.5872 697.354 46.332V45.0195C697.354 44.7917 697.335 44.4909 697.299 44.1172C697.262 43.7435 697.185 43.429 697.066 43.1738C696.939 42.8822 696.738 42.6361 696.465 42.4355C696.191 42.235 695.831 42.1348 695.385 42.1348C694.984 42.1348 694.646 42.194 694.373 42.3125C694.109 42.4219 693.895 42.5358 693.73 42.6543C693.758 42.8366 693.835 43.1146 693.963 43.4883C694.09 43.862 694.154 44.222 694.154 44.5684C694.154 44.7233 694.113 44.9193 694.031 45.1562C693.949 45.3841 693.831 45.5664 693.676 45.7031C693.466 45.8854 693.229 46.0267 692.965 46.127C692.71 46.2272 692.313 46.2773 691.775 46.2773C691.01 46.2773 690.431 46.0951 690.039 45.7305C689.647 45.3568 689.451 44.8737 689.451 44.2812C689.451 43.7708 689.652 43.3151 690.053 42.9141C690.463 42.5039 690.96 42.1667 691.543 41.9023C692.117 41.6289 692.778 41.4193 693.525 41.2734C694.273 41.1185 694.965 41.041 695.604 41.041C696.488 41.041 697.299 41.0957 698.037 41.2051C698.775 41.3053 699.441 41.5195 700.033 41.8477C700.598 42.1667 701.045 42.6315 701.373 43.2422C701.71 43.8438 701.879 44.6322 701.879 45.6074C701.879 46.6374 701.856 47.8587 701.811 49.2715C701.774 50.6842 701.756 51.6139 701.756 52.0605C701.756 52.4707 701.815 52.7943 701.934 53.0312C702.061 53.2682 702.253 53.446 702.508 53.5645C702.663 53.6374 702.904 53.6829 703.232 53.7012C703.57 53.7103 703.875 53.7148 704.148 53.7148V54.7129ZM697.354 47.5898C696.843 47.763 696.337 47.9635 695.836 48.1914C695.335 48.4102 694.924 48.6426 694.605 48.8887C694.268 49.1439 694.004 49.472 693.812 49.873C693.621 50.265 693.525 50.7298 693.525 51.2676C693.525 51.9785 693.685 52.4935 694.004 52.8125C694.332 53.1315 694.733 53.291 695.207 53.291C695.708 53.291 696.118 53.1908 696.438 52.9902C696.766 52.7806 697.053 52.5254 697.299 52.2246L697.354 47.5898ZM713.527 55H704.955V54.002C705.192 53.9837 705.42 53.9609 705.639 53.9336C705.867 53.9062 706.067 53.8607 706.24 53.7969C706.532 53.6875 706.728 53.5326 706.828 53.332C706.938 53.1224 706.992 52.849 706.992 52.5117V37.3633C706.992 37.0169 706.919 36.6979 706.773 36.4062C706.637 36.1055 706.45 35.8776 706.213 35.7227C706.031 35.6042 705.753 35.4902 705.379 35.3809C705.014 35.2715 704.691 35.2077 704.408 35.1895V34.1914L711.285 33.8359L711.49 34.0547V52.334C711.49 52.6712 711.549 52.9447 711.668 53.1543C711.786 53.3639 711.978 53.528 712.242 53.6465C712.424 53.7285 712.616 53.8014 712.816 53.8652C713.017 53.929 713.254 53.9746 713.527 54.002V55ZM723.18 55H714.607V54.002C714.844 53.9837 715.072 53.9609 715.291 53.9336C715.519 53.9062 715.719 53.8607 715.893 53.7969C716.184 53.6875 716.38 53.5326 716.48 53.332C716.59 53.1224 716.645 52.849 716.645 52.5117V37.3633C716.645 37.0169 716.572 36.6979 716.426 36.4062C716.289 36.1055 716.102 35.8776 715.865 35.7227C715.683 35.6042 715.405 35.4902 715.031 35.3809C714.667 35.2715 714.343 35.2077 714.061 35.1895V34.1914L720.938 33.8359L721.143 34.0547V52.334C721.143 52.6712 721.202 52.9447 721.32 53.1543C721.439 53.3639 721.63 53.528 721.895 53.6465C722.077 53.7285 722.268 53.8014 722.469 53.8652C722.669 53.929 722.906 53.9746 723.18 54.002V55ZM740.133 54.7129C739.732 54.8861 739.258 55.0456 738.711 55.1914C738.164 55.3372 737.585 55.4102 736.975 55.4102C735.854 55.4102 735.029 55.2461 734.5 54.918C733.971 54.5807 733.611 54.1022 733.42 53.4824H733.338C733.028 53.7923 732.727 54.0566 732.436 54.2754C732.153 54.4941 731.848 54.681 731.52 54.8359C731.091 55.0365 730.676 55.1823 730.275 55.2734C729.883 55.3737 729.332 55.4238 728.621 55.4238C727.564 55.4238 726.661 55.1139 725.914 54.4941C725.167 53.8652 724.793 53.0358 724.793 52.0059C724.793 51.4134 724.875 50.9121 725.039 50.502C725.203 50.0827 725.436 49.7135 725.736 49.3945C726.01 49.1029 726.324 48.8613 726.68 48.6699C727.044 48.4785 727.441 48.3008 727.869 48.1367C728.689 47.8359 729.674 47.526 730.822 47.207C731.971 46.8789 732.809 46.5872 733.338 46.332V45.0195C733.338 44.7917 733.32 44.4909 733.283 44.1172C733.247 43.7435 733.169 43.429 733.051 43.1738C732.923 42.8822 732.723 42.6361 732.449 42.4355C732.176 42.235 731.816 42.1348 731.369 42.1348C730.968 42.1348 730.631 42.194 730.357 42.3125C730.093 42.4219 729.879 42.5358 729.715 42.6543C729.742 42.8366 729.82 43.1146 729.947 43.4883C730.075 43.862 730.139 44.222 730.139 44.5684C730.139 44.7233 730.098 44.9193 730.016 45.1562C729.934 45.3841 729.815 45.5664 729.66 45.7031C729.451 45.8854 729.214 46.0267 728.949 46.127C728.694 46.2272 728.298 46.2773 727.76 46.2773C726.994 46.2773 726.415 46.0951 726.023 45.7305C725.632 45.3568 725.436 44.8737 725.436 44.2812C725.436 43.7708 725.636 43.3151 726.037 42.9141C726.447 42.5039 726.944 42.1667 727.527 41.9023C728.102 41.6289 728.762 41.4193 729.51 41.2734C730.257 41.1185 730.95 41.041 731.588 41.041C732.472 41.041 733.283 41.0957 734.021 41.2051C734.76 41.3053 735.425 41.5195 736.018 41.8477C736.583 42.1667 737.029 42.6315 737.357 43.2422C737.695 43.8438 737.863 44.6322 737.863 45.6074C737.863 46.6374 737.84 47.8587 737.795 49.2715C737.758 50.6842 737.74 51.6139 737.74 52.0605C737.74 52.4707 737.799 52.7943 737.918 53.0312C738.046 53.2682 738.237 53.446 738.492 53.5645C738.647 53.6374 738.889 53.6829 739.217 53.7012C739.554 53.7103 739.859 53.7148 740.133 53.7148V54.7129ZM733.338 47.5898C732.827 47.763 732.322 47.9635 731.82 48.1914C731.319 48.4102 730.909 48.6426 730.59 48.8887C730.253 49.1439 729.988 49.472 729.797 49.873C729.605 50.265 729.51 50.7298 729.51 51.2676C729.51 51.9785 729.669 52.4935 729.988 52.8125C730.316 53.1315 730.717 53.291 731.191 53.291C731.693 53.291 732.103 53.1908 732.422 52.9902C732.75 52.7806 733.037 52.5254 733.283 52.2246L733.338 47.5898ZM759.232 55H751.002V54.002C751.175 53.9837 751.385 53.9609 751.631 53.9336C751.877 53.9062 752.064 53.8607 752.191 53.7969C752.383 53.6966 752.52 53.5508 752.602 53.3594C752.684 53.168 752.725 52.8854 752.725 52.5117V46.1133C752.725 45.1836 752.551 44.4863 752.205 44.0215C751.868 43.5475 751.367 43.3105 750.701 43.3105C750.337 43.3105 749.995 43.3652 749.676 43.4746C749.366 43.584 749.061 43.7435 748.76 43.9531C748.495 44.1354 748.281 44.3223 748.117 44.5137C747.962 44.7051 747.83 44.8737 747.721 45.0195V52.3613C747.721 52.6803 747.766 52.9492 747.857 53.168C747.949 53.3776 748.099 53.5371 748.309 53.6465C748.454 53.7285 748.637 53.8014 748.855 53.8652C749.074 53.929 749.288 53.9746 749.498 54.002V55H741.186V54.002C741.413 53.9837 741.641 53.9609 741.869 53.9336C742.106 53.8971 742.307 53.8516 742.471 53.7969C742.762 53.6966 742.963 53.5417 743.072 53.332C743.182 53.1224 743.236 52.849 743.236 52.5117V44.5547C743.236 44.2721 743.163 43.9941 743.018 43.7207C742.872 43.4473 742.68 43.224 742.443 43.0508C742.279 42.9414 742.07 42.8503 741.814 42.7773C741.568 42.7044 741.295 42.6543 740.994 42.627V41.6289L747.516 41.2734L747.721 41.4785V43.4609H747.775C748.031 43.2331 748.34 42.9596 748.705 42.6406C749.07 42.3216 749.407 42.0618 749.717 41.8613C750.054 41.6426 750.496 41.4557 751.043 41.3008C751.59 41.1458 752.173 41.0684 752.793 41.0684C754.279 41.0684 755.391 41.4922 756.129 42.3398C756.876 43.1784 757.25 44.2949 757.25 45.6895V52.3887C757.25 52.7259 757.3 52.9948 757.4 53.1953C757.501 53.3958 757.688 53.5553 757.961 53.6738C758.107 53.7376 758.285 53.8014 758.494 53.8652C758.713 53.929 758.959 53.9746 759.232 54.002V55ZM775.83 42.9688H772.822C773.178 43.3698 773.442 43.7936 773.615 44.2402C773.798 44.6868 773.889 45.1517 773.889 45.6348C773.889 46.2637 773.72 46.8561 773.383 47.4121C773.046 47.959 772.604 48.4056 772.057 48.752C771.501 49.1074 770.849 49.3854 770.102 49.5859C769.354 49.7865 768.543 49.8867 767.668 49.8867H765.439C765.33 49.9688 765.207 50.1009 765.07 50.2832C764.943 50.4564 764.879 50.625 764.879 50.7891C764.879 51.1901 765.038 51.4681 765.357 51.623C765.676 51.778 766.255 51.8646 767.094 51.8828C767.923 51.901 768.762 51.9375 769.609 51.9922C770.457 52.0378 771.063 52.0651 771.428 52.0742C771.956 52.1016 772.48 52.2109 773 52.4023C773.52 52.5846 773.971 52.8262 774.354 53.127C774.773 53.446 775.119 53.8561 775.393 54.3574C775.666 54.8496 775.803 55.4193 775.803 56.0664C775.803 56.7591 775.634 57.4108 775.297 58.0215C774.969 58.6322 774.463 59.1608 773.779 59.6074C773.059 60.0723 772.193 60.4323 771.182 60.6875C770.179 60.9427 768.935 61.0703 767.449 61.0703C765.052 61.0703 763.229 60.7786 761.98 60.1953C760.732 59.612 760.107 58.737 760.107 57.5703C760.107 56.8503 760.445 56.2578 761.119 55.793C761.794 55.3281 762.842 55.0729 764.264 55.0273V54.8633C763.425 54.5807 762.769 54.207 762.295 53.7422C761.83 53.2682 761.598 52.7214 761.598 52.1016C761.598 51.7188 761.689 51.3952 761.871 51.1309C762.062 50.8665 762.304 50.6341 762.596 50.4336C762.851 50.2604 763.161 50.1146 763.525 49.9961C763.89 49.8685 764.195 49.7682 764.441 49.6953V49.5449C763.211 49.0892 762.304 48.5332 761.721 47.877C761.146 47.2207 760.859 46.4186 760.859 45.4707C760.859 44.1309 761.475 43.0599 762.705 42.2578C763.945 41.4557 765.512 41.0547 767.408 41.0547C768.028 41.0547 768.625 41.1094 769.199 41.2188C769.783 41.319 770.225 41.4102 770.525 41.4922H775.83V42.9688ZM769.418 45.5801C769.418 44.5137 769.249 43.6706 768.912 43.0508C768.575 42.431 768.055 42.1211 767.354 42.1211C766.998 42.1211 766.688 42.2077 766.424 42.3809C766.16 42.5449 765.945 42.7865 765.781 43.1055C765.626 43.4154 765.521 43.7799 765.467 44.1992C765.412 44.6094 765.385 45.0332 765.385 45.4707C765.385 46.4642 765.558 47.2799 765.904 47.918C766.251 48.556 766.743 48.875 767.381 48.875C768.037 48.875 768.538 48.5879 768.885 48.0137C769.24 47.4395 769.418 46.6283 769.418 45.5801ZM771.715 57.0645C771.715 56.7546 771.628 56.4447 771.455 56.1348C771.282 55.834 770.895 55.5879 770.293 55.3965C769.965 55.3418 769.423 55.3053 768.666 55.2871C767.919 55.2689 766.889 55.2598 765.576 55.2598C765.257 55.5332 764.988 55.8568 764.77 56.2305C764.56 56.6042 764.455 57.0553 764.455 57.584C764.455 57.8118 764.519 58.0625 764.646 58.3359C764.774 58.6094 764.975 58.8646 765.248 59.1016C765.567 59.3659 765.923 59.571 766.314 59.7168C766.706 59.8717 767.299 59.9492 768.092 59.9492C769.268 59.9492 770.165 59.7214 770.785 59.2656C771.405 58.8099 771.715 58.0762 771.715 57.0645Z" fill="black"/>
<path d="M1094 45C1094 36.1634 1101.16 29 1110 29H1328C1336.84 29 1344 36.1634 1344 45C1344 53.8366 1336.84 61 1328 61H1110C1101.16 61 1094 53.8366 1094 45Z" fill="#F1F1F1" fill-opacity="0.63"/>
<path d="M1335.72 51.4227L1330.9 46.5995C1331.64 45.6256 1332.06 44.3735 1332.06 43.0284C1332.06 39.6894 1329.37 37 1326.03 37C1322.69 37 1320 39.6903 1320 43.0292C1320 46.3682 1322.69 49.0576 1326.03 49.0576C1327.37 49.0576 1328.58 48.6402 1329.6 47.8985L1334.42 52.7218C1334.61 52.907 1334.84 53 1335.07 53C1335.3 53 1335.54 52.907 1335.72 52.7218C1336.09 52.3505 1336.09 51.794 1335.72 51.4227L1335.72 51.4227ZM1326.03 47.2029C1323.71 47.2029 1321.86 45.3483 1321.86 43.0292C1321.86 40.7102 1323.71 38.8556 1326.03 38.8556C1328.35 38.8556 1330.2 40.7102 1330.2 43.0292C1330.2 45.3474 1328.35 47.2029 1326.03 47.2029Z" fill="black"/>
<path d="M1120.72 44.9297C1119.44 44.5599 1118.5 44.1068 1117.91 43.5703C1117.33 43.0286 1117.04 42.362 1117.04 41.5703C1117.04 40.6745 1117.39 39.9349 1118.11 39.3516C1118.82 38.763 1119.76 38.4688 1120.9 38.4688C1121.68 38.4688 1122.38 38.6198 1122.99 38.9219C1123.6 39.224 1124.08 39.6406 1124.41 40.1719C1124.75 40.7031 1124.92 41.2839 1124.92 41.9141H1123.41C1123.41 41.2266 1123.19 40.6875 1122.75 40.2969C1122.32 39.901 1121.7 39.7031 1120.9 39.7031C1120.16 39.7031 1119.58 39.8672 1119.17 40.1953C1118.76 40.5182 1118.55 40.9688 1118.55 41.5469C1118.55 42.0104 1118.75 42.4036 1119.14 42.7266C1119.53 43.0443 1120.2 43.3359 1121.14 43.6016C1122.09 43.8672 1122.83 44.1615 1123.36 44.4844C1123.9 44.8021 1124.3 45.1745 1124.55 45.6016C1124.81 46.0286 1124.94 46.5312 1124.94 47.1094C1124.94 48.0312 1124.58 48.7708 1123.86 49.3281C1123.14 49.8802 1122.18 50.1562 1120.98 50.1562C1120.2 50.1562 1119.47 50.0078 1118.79 49.7109C1118.12 49.4089 1117.59 48.9974 1117.22 48.4766C1116.86 47.9557 1116.68 47.3646 1116.68 46.7031H1118.18C1118.18 47.3906 1118.44 47.9349 1118.94 48.3359C1119.45 48.7318 1120.13 48.9297 1120.98 48.9297C1121.77 48.9297 1122.38 48.7682 1122.8 48.4453C1123.22 48.1224 1123.43 47.6823 1123.43 47.125C1123.43 46.5677 1123.24 46.138 1122.85 45.8359C1122.46 45.5286 1121.75 45.2266 1120.72 44.9297ZM1130.15 50.1562C1129.01 50.1562 1128.07 49.7812 1127.36 49.0312C1126.64 48.276 1126.28 47.2682 1126.28 46.0078V45.7422C1126.28 44.9036 1126.44 44.1562 1126.75 43.5C1127.08 42.8385 1127.52 42.3229 1128.1 41.9531C1128.68 41.5781 1129.3 41.3906 1129.97 41.3906C1131.07 41.3906 1131.93 41.7526 1132.54 42.4766C1133.14 43.2005 1133.45 44.237 1133.45 45.5859V46.1875H1127.72C1127.74 47.0208 1127.99 47.6953 1128.45 48.2109C1128.92 48.7214 1129.51 48.9766 1130.23 48.9766C1130.74 48.9766 1131.17 48.8724 1131.53 48.6641C1131.88 48.4557 1132.19 48.1797 1132.46 47.8359L1133.34 48.5234C1132.63 49.612 1131.57 50.1562 1130.15 50.1562ZM1129.97 42.5781C1129.39 42.5781 1128.9 42.7917 1128.5 43.2188C1128.11 43.6406 1127.86 44.2344 1127.77 45H1132V44.8906C1131.96 44.1562 1131.76 43.5885 1131.41 43.1875C1131.06 42.7812 1130.58 42.5781 1129.97 42.5781ZM1140.35 50C1140.26 49.8333 1140.2 49.5365 1140.14 49.1094C1139.47 49.8073 1138.67 50.1562 1137.74 50.1562C1136.9 50.1562 1136.22 49.9219 1135.68 49.4531C1135.15 48.9792 1134.89 48.3802 1134.89 47.6562C1134.89 46.776 1135.22 46.0938 1135.89 45.6094C1136.56 45.1198 1137.5 44.875 1138.71 44.875H1140.12V44.2109C1140.12 43.7057 1139.97 43.3047 1139.67 43.0078C1139.37 42.7057 1138.92 42.5547 1138.33 42.5547C1137.82 42.5547 1137.38 42.6849 1137.04 42.9453C1136.69 43.2057 1136.51 43.5208 1136.51 43.8906H1135.06C1135.06 43.4688 1135.21 43.0625 1135.5 42.6719C1135.81 42.276 1136.21 41.9635 1136.72 41.7344C1137.24 41.5052 1137.8 41.3906 1138.42 41.3906C1139.39 41.3906 1140.15 41.6354 1140.71 42.125C1141.26 42.6094 1141.55 43.2786 1141.57 44.1328V48.0234C1141.57 48.7995 1141.67 49.4167 1141.86 49.875V50H1140.35ZM1137.95 48.8984C1138.4 48.8984 1138.83 48.7812 1139.24 48.5469C1139.64 48.3125 1139.94 48.0078 1140.12 47.6328V45.8984H1138.99C1137.22 45.8984 1136.33 46.4167 1136.33 47.4531C1136.33 47.9062 1136.48 48.2604 1136.79 48.5156C1137.09 48.7708 1137.48 48.8984 1137.95 48.8984ZM1147.92 42.8438C1147.7 42.8073 1147.46 42.7891 1147.21 42.7891C1146.26 42.7891 1145.62 43.1927 1145.28 44V50H1143.83V41.5469H1145.24L1145.26 42.5234C1145.74 41.7682 1146.41 41.3906 1147.28 41.3906C1147.56 41.3906 1147.77 41.4271 1147.92 41.5V42.8438ZM1152.49 48.9766C1153 48.9766 1153.45 48.8203 1153.84 48.5078C1154.23 48.1953 1154.44 47.8047 1154.48 47.3359H1155.85C1155.82 47.8203 1155.65 48.2812 1155.35 48.7188C1155.04 49.1562 1154.63 49.5052 1154.11 49.7656C1153.6 50.026 1153.06 50.1562 1152.49 50.1562C1151.34 50.1562 1150.42 49.7734 1149.74 49.0078C1149.06 48.237 1148.72 47.1849 1148.72 45.8516V45.6094C1148.72 44.7865 1148.87 44.0547 1149.18 43.4141C1149.48 42.7734 1149.91 42.276 1150.47 41.9219C1151.04 41.5677 1151.71 41.3906 1152.48 41.3906C1153.43 41.3906 1154.21 41.6745 1154.84 42.2422C1155.47 42.8099 1155.81 43.5469 1155.85 44.4531H1154.48C1154.44 43.9062 1154.23 43.4583 1153.86 43.1094C1153.49 42.7552 1153.03 42.5781 1152.48 42.5781C1151.75 42.5781 1151.18 42.8438 1150.77 43.375C1150.37 43.901 1150.17 44.6641 1150.17 45.6641V45.9375C1150.17 46.9115 1150.37 47.6615 1150.77 48.1875C1151.17 48.7135 1151.74 48.9766 1152.49 48.9766ZM1158.92 42.5703C1159.56 41.7839 1160.39 41.3906 1161.42 41.3906C1163.2 41.3906 1164.11 42.3984 1164.12 44.4141V50H1162.68V44.4062C1162.67 43.7969 1162.53 43.3464 1162.25 43.0547C1161.98 42.763 1161.56 42.6172 1160.98 42.6172C1160.51 42.6172 1160.1 42.7422 1159.75 42.9922C1159.39 43.2422 1159.12 43.5703 1158.92 43.9766V50H1157.47V38H1158.92V42.5703Z" fill="black"/>
</svg>
